<?xml version="1.0" encoding="utf-8"?>
<!-- Generator: Adobe Illustrator 19.0.0, SVG Export Plug-In . SVG Version: 6.00 Build 0)  -->
<svg version="1.1" id="Слой_1" xmlns="http://www.w3.org/2000/svg" xmlns:xlink="http://www.w3.org/1999/xlink" x="0px" y="0px"
	 viewBox="-296 386 18 22" style="enable-background:new -296 386 18 22;" xml:space="preserve">
<style type="text/css">
	.st0{fill:#E41E2B;}
</style>
<path class="st0" d="M-284.8,396.2c1.9-0.8,3.2-2.7,3.2-4.9c0-2.9-2.4-5.3-5.3-5.3c-2.9,0-5.3,2.4-5.3,5.3c0,2.2,1.3,4,3.1,4.8
	c-4,0.9-6.9,4.3-6.9,8.3c0,1.3,0.3,2.4,0.8,3.5v0h1c0,0,0.1,0,0.1,0c0,0,0,0,0,0h15.2v-0.1c0,0,0,0,0,0c0.5-1.1,0.8-2.2,0.8-3.5
	C-278,400.4-280.9,397.1-284.8,396.2z M-291.2,391.3c0-2.4,1.9-4.3,4.3-4.3c2.4,0,4.3,1.9,4.3,4.3c0,2.4-1.9,4.3-4.3,4.3
	C-289.3,395.6-291.2,393.7-291.2,391.3z M-279.5,407C-279.5,407-279.5,407-279.5,407l-15,0c-0.3-0.8-0.5-1.7-0.5-2.5
	c0-4.1,3.6-7.5,8-7.5s8,3.4,8,7.5C-279,405.3-279.2,406.2-279.5,407z"/>
</svg>
