<?xml version="1.0" encoding="utf-8"?>
<!-- Generator: Adobe Illustrator 19.0.0, SVG Export Plug-In . SVG Version: 6.00 Build 0)  -->
<svg version="1.1" id="Слой_1" xmlns="http://www.w3.org/2000/svg" xmlns:xlink="http://www.w3.org/1999/xlink" x="0px" y="0px"
	 viewBox="-38.5 40 18 22" style="enable-background:new -38.5 40 18 22;" xml:space="preserve">
<path d="M-24.4,45.2v-0.3c0-2.7-2.2-4.9-4.9-4.9h-0.5c-2.7,0-4.9,2.2-4.9,4.9v0.3h-3.8V62h18V45.2H-24.4z M-33.9,44.9
	c0-2.3,1.8-4.1,4.1-4.1h0.5c2.3,0,4.1,1.8,4.1,4.1v0.3H-34L-33.9,44.9L-33.9,44.9z M-21.5,61h-16V46.2h2.8v1.9h-0.2
	c-0.3,0-0.5,0.2-0.5,0.5s0.2,0.5,0.5,0.5h1.2c0.3,0,0.5-0.2,0.5-0.5s-0.2-0.5-0.5-0.5h-0.2v-1.9h8.8v1.9h-0.2
	c-0.3,0-0.5,0.2-0.5,0.5s0.2,0.5,0.5,0.5h1.2c0.3,0,0.5-0.2,0.5-0.5s-0.2-0.5-0.5-0.5h-0.2v-1.9h2.9L-21.5,61L-21.5,61z"/>
</svg>
