<?xml version="1.0" encoding="utf-8"?>
<!-- Generator: Adobe Illustrator 19.0.0, SVG Export Plug-In . SVG Version: 6.00 Build 0)  -->
<svg version="1.1" id="Слой_1" xmlns="http://www.w3.org/2000/svg" xmlns:xlink="http://www.w3.org/1999/xlink" x="0px" y="0px"
	 viewBox="-40.5 40 17.9 21.9" style="enable-background:new -40.5 40 17.9 21.9;" xml:space="preserve">
<style type="text/css">
	.st0{fill:#E41E2B;}
</style>
<path class="st0" d="M-29.3,50.2c1.9-0.8,3.2-2.7,3.2-4.9c0-2.9-2.4-5.3-5.3-5.3s-5.3,2.4-5.3,5.3c0,2.2,1.3,4,3.1,4.8
	c-4,0.9-6.9,4.3-6.9,8.3c0,1.3,0.3,2.4,0.8,3.5l0,0h1h0.1l0,0h15.2v-0.1l0,0c0.5-1.1,0.8-2.2,0.8-3.5
	C-22.5,54.4-25.4,51.1-29.3,50.2z M-35.7,45.3c0-2.4,1.9-4.3,4.3-4.3s4.3,1.9,4.3,4.3s-1.9,4.3-4.3,4.3
	C-33.8,49.6-35.7,47.7-35.7,45.3z M-24,61L-24,61h-15c-0.3-0.8-0.5-1.7-0.5-2.5c0-4.1,3.6-7.5,8-7.5s8,3.4,8,7.5
	C-23.5,59.3-23.7,60.2-24,61z"/>
</svg>
